<svg xmlns="http://www.w3.org/2000/svg" viewBox="0 0 500 372.61"><defs><style>.cls-1{isolation:isolate;}.cls-2{fill:#d1e3ff;}.cls-3{fill:#e3eeff;}.cls-4{fill:#eef5ff;}.cls-16,.cls-5{fill:#fff;}.cls-5{opacity:0.7;}.cls-6{fill:#f0f6ff;}.cls-7{fill:#0053cc;}.cls-14,.cls-8{mix-blend-mode:multiply;}.cls-16,.cls-8{opacity:0.2;}.cls-9{fill:#0f264c;}.cls-10{fill:#0050af;}.cls-11{fill:#4ea4f9;}.cls-12,.cls-14{fill:#0d6ab7;}.cls-13{fill:#197bdd;}.cls-14{opacity:0.6;}.cls-15{fill:#2b97ef;}.cls-17{fill:#64b9ff;}.cls-18{fill:#ff8b7b;}.cls-19{fill:#14365b;}.cls-20{fill:#ea7063;}.cls-21{fill:#9fc6ff;}.cls-22{fill:#77b3fc;}.cls-23{fill:#407bff;}.cls-24{fill:#004daa;}.cls-25{fill:#ff5652;}.cls-26{fill:#318fff;}</style></defs><g class="cls-1"><g id="Layer_2" data-name="Layer 2"><g id="Background_2" data-name="Background 2"><rect class="cls-2" y="327.45" width="500" height="0.25"/><rect class="cls-2" x="90.5" y="338.81" width="48.63" height="0.25"/><rect class="cls-2" x="66.89" y="338.94" width="12.79" height="0.25"/><rect class="cls-2" x="194.72" y="337.26" width="14.97" height="0.25"/><rect class="cls-2" x="215.44" y="337.26" width="61.22" height="0.25"/><rect class="cls-2" x="363.89" y="339.19" width="56.78" height="0.25"/><rect class="cls-2" x="343.29" y="339.19" width="15.04" height="0.25"/><rect class="cls-2" x="435.67" y="334.67" width="12.89" height="0.25"/><path class="cls-2" d="M237,282.85H43.91a5.71,5.71,0,0,1-5.7-5.71V5.71A5.71,5.71,0,0,1,43.91,0H237a5.71,5.71,0,0,1,5.71,5.71V277.14A5.71,5.71,0,0,1,237,282.85ZM43.91.25a5.46,5.46,0,0,0-5.45,5.46V277.14a5.46,5.46,0,0,0,5.45,5.46H237a5.47,5.47,0,0,0,5.46-5.46V5.71A5.47,5.47,0,0,0,237,.25Z"/><path class="cls-2" d="M453.31,282.85H260.21a5.72,5.72,0,0,1-5.71-5.71V5.71A5.72,5.72,0,0,1,260.21,0h193.1A5.71,5.71,0,0,1,459,5.71V277.14A5.71,5.71,0,0,1,453.31,282.85ZM260.21.25a5.47,5.47,0,0,0-5.46,5.46V277.14a5.47,5.47,0,0,0,5.46,5.46h193.1a5.47,5.47,0,0,0,5.46-5.46V5.71A5.47,5.47,0,0,0,453.31.25Z"/><path class="cls-2" d="M500,312.64H431.1a2.81,2.81,0,0,1-2.81-2.81V128.67a2.3,2.3,0,0,0-2.31-2.31h-7.25v-.5H426a2.81,2.81,0,0,1,2.81,2.81V309.83a2.31,2.31,0,0,0,2.31,2.31H500Z"/><path class="cls-2" d="M500,309H433.44a2.81,2.81,0,0,1-2.81-2.8V125a2.31,2.31,0,0,0-2.3-2.31h-9.6v-.5h9.6a2.81,2.81,0,0,1,2.8,2.81V306.18a2.31,2.31,0,0,0,2.31,2.3H500Z"/><path class="cls-2" d="M500,305.32H435.78a2.81,2.81,0,0,1-2.81-2.8V121.35a2.31,2.31,0,0,0-2.3-2.31H418.73v-.5h11.94a2.81,2.81,0,0,1,2.8,2.81V302.52a2.31,2.31,0,0,0,2.31,2.3H500Z"/><path class="cls-2" d="M500,301.67H438.12a2.81,2.81,0,0,1-2.8-2.81V117.69a2.32,2.32,0,0,0-2.31-2.31H418.73v-.5H433a2.81,2.81,0,0,1,2.81,2.81V298.86a2.31,2.31,0,0,0,2.3,2.31H500Z"/><path class="cls-2" d="M500,298H440.46a2.81,2.81,0,0,1-2.8-2.81V114a2.32,2.32,0,0,0-2.31-2.31H418.73v-.5h16.62a2.81,2.81,0,0,1,2.81,2.81V295.2a2.31,2.31,0,0,0,2.3,2.31H500Z"/><path class="cls-2" d="M500,294.35H442.81a2.81,2.81,0,0,1-2.81-2.81V110.37a2.31,2.31,0,0,0-2.31-2.3h-19v-.5h19a2.81,2.81,0,0,1,2.81,2.8V291.54a2.31,2.31,0,0,0,2.31,2.31H500Z"/><path class="cls-2" d="M500,290.69H445.15a2.81,2.81,0,0,1-2.81-2.81V106.72a2.31,2.31,0,0,0-2.31-2.31h-21.3v-.5H440a2.81,2.81,0,0,1,2.81,2.81V287.88a2.3,2.3,0,0,0,2.31,2.31H500Z"/><rect class="cls-2" x="217.04" y="144.07" width="61.8" height="0.5"/><rect class="cls-2" x="217.04" y="140.41" width="61.8" height="0.5"/><rect class="cls-2" x="217.04" y="136.75" width="61.8" height="0.5"/><rect class="cls-2" x="217.04" y="133.09" width="61.8" height="0.5"/><rect class="cls-2" x="217.04" y="129.43" width="61.8" height="0.5"/><rect class="cls-2" x="217.04" y="125.77" width="61.8" height="0.5"/><rect class="cls-2" x="217.04" y="122.12" width="61.8" height="0.5"/><rect class="cls-2" x="217.04" y="268.03" width="61.8" height="0.5"/><rect class="cls-2" x="217.04" y="264.37" width="61.8" height="0.5"/><rect class="cls-2" x="217.04" y="260.71" width="61.8" height="0.5"/><rect class="cls-2" x="217.04" y="257.05" width="61.8" height="0.5"/><rect class="cls-2" x="217.04" y="253.39" width="61.8" height="0.5"/><rect class="cls-2" x="217.04" y="249.73" width="61.8" height="0.5"/><rect class="cls-2" x="217.04" y="246.08" width="61.8" height="0.5"/><path class="cls-2" d="M95.94,294.82h-24A2.81,2.81,0,0,1,69.13,292V110.84a2.3,2.3,0,0,0-2.3-2.3H38.46V108H66.83a2.8,2.8,0,0,1,2.8,2.8V292a2.32,2.32,0,0,0,2.31,2.31h24Z"/><path class="cls-2" d="M95.94,298.48H69.6a2.81,2.81,0,0,1-2.81-2.81V114.5a2.3,2.3,0,0,0-2.3-2.3h-26v-.5h26a2.8,2.8,0,0,1,2.8,2.8V295.67A2.32,2.32,0,0,0,69.6,298H95.94Z"/><path class="cls-2" d="M95.94,302.14H67.26a2.81,2.81,0,0,1-2.81-2.81V118.16a2.31,2.31,0,0,0-2.3-2.31H38.46v-.5H62.15a2.81,2.81,0,0,1,2.8,2.81V299.33a2.32,2.32,0,0,0,2.31,2.31H95.94Z"/><path class="cls-2" d="M95.94,305.8h-31A2.81,2.81,0,0,1,62.11,303V121.82a2.31,2.31,0,0,0-2.31-2.31H38.46V119H59.8a2.81,2.81,0,0,1,2.81,2.81V303a2.32,2.32,0,0,0,2.31,2.31h31Z"/><path class="cls-2" d="M95.94,309.45H62.58a2.81,2.81,0,0,1-2.81-2.8V125.48a2.31,2.31,0,0,0-2.31-2.31h-19v-.5h19a2.81,2.81,0,0,1,2.81,2.81V306.65a2.31,2.31,0,0,0,2.31,2.3H95.94Z"/><path class="cls-2" d="M95.94,313.11H60.24a2.81,2.81,0,0,1-2.81-2.81V129.14a2.31,2.31,0,0,0-2.31-2.31H38.46v-.5H55.12a2.81,2.81,0,0,1,2.81,2.81V310.3a2.31,2.31,0,0,0,2.31,2.31h35.7Z"/><path class="cls-2" d="M95.94,316.77h-38A2.81,2.81,0,0,1,55.09,314V132.8a2.31,2.31,0,0,0-2.31-2.31H38.46V130H52.78a2.81,2.81,0,0,1,2.81,2.81V314a2.3,2.3,0,0,0,2.31,2.31h38Z"/><rect class="cls-3" x="95.94" y="312.39" width="101.46" height="15.05"/><rect class="cls-2" x="197.4" y="312.39" width="20.58" height="15.05" transform="translate(415.38 639.84) rotate(180)"/><rect class="cls-4" x="89.07" y="46.42" width="108.33" height="265.97"/><rect class="cls-3" x="98.17" y="44.15" width="117.58" height="2.27"/><rect class="cls-3" x="197.4" y="46.42" width="27.44" height="265.97" transform="translate(422.24 358.82) rotate(180)"/><rect class="cls-3" x="92.3" y="49.61" width="101.87" height="29.14"/><rect class="cls-3" x="92.3" y="279.9" width="101.87" height="29.14"/><rect class="cls-3" x="92.3" y="247" width="101.87" height="29.14"/><rect class="cls-3" x="92.3" y="214.1" width="101.87" height="29.14"/><rect class="cls-3" x="92.3" y="181.2" width="101.87" height="29.14"/><rect class="cls-3" x="92.3" y="148.31" width="101.87" height="29.14"/><rect class="cls-3" x="92.3" y="115.41" width="101.87" height="29.14"/><rect class="cls-3" x="92.3" y="82.51" width="101.87" height="29.14"/><rect class="cls-5" x="161.83" y="53.77" width="28.36" height="20.82" rx="4.25"/><rect class="cls-4" x="181.56" y="61.52" width="5.32" height="5.33" rx="1.28" transform="translate(248.4 -120.03) rotate(90)"/><rect class="cls-5" x="161.83" y="86.67" width="28.36" height="20.82" rx="4.25"/><rect class="cls-4" x="181.56" y="94.42" width="5.32" height="5.33" rx="1.28" transform="translate(281.3 -87.14) rotate(90)"/><rect class="cls-5" x="161.83" y="119.57" width="28.36" height="20.82" rx="4.25"/><rect class="cls-4" x="181.56" y="127.31" width="5.32" height="5.33" rx="1.28" transform="translate(314.19 -54.24) rotate(90)"/><rect class="cls-5" x="161.83" y="152.47" width="28.36" height="20.82" rx="4.25"/><rect class="cls-4" x="181.56" y="160.21" width="5.32" height="5.33" rx="1.28" transform="translate(347.09 -21.34) rotate(90)"/><rect class="cls-5" x="161.83" y="185.37" width="28.36" height="20.82" rx="4.25"/><rect class="cls-4" x="181.56" y="193.11" width="5.32" height="5.33" rx="1.28" transform="translate(379.99 11.56) rotate(90)"/><rect class="cls-5" x="161.83" y="218.27" width="28.36" height="20.82" rx="4.25"/><rect class="cls-4" x="181.56" y="226.01" width="5.32" height="5.33" rx="1.28" transform="translate(412.89 44.46) rotate(90)"/><rect class="cls-5" x="161.83" y="251.16" width="28.36" height="20.82" rx="4.25"/><rect class="cls-4" x="181.56" y="258.91" width="5.32" height="5.33" rx="1.28" transform="translate(445.79 77.36) rotate(90)"/><rect class="cls-5" x="161.83" y="284.06" width="28.36" height="20.82" rx="4.25"/><rect class="cls-4" x="181.56" y="291.81" width="5.32" height="5.33" rx="1.28" transform="translate(478.69 110.26) rotate(90)"/><rect class="cls-4" x="173.35" y="61.52" width="5.32" height="5.33" rx="1.28" transform="translate(240.19 -111.83) rotate(90)"/><rect class="cls-4" x="173.35" y="94.42" width="5.32" height="5.33" rx="1.28" transform="translate(273.09 -78.93) rotate(90)"/><rect class="cls-4" x="173.35" y="127.31" width="5.32" height="5.33" rx="1.28" transform="translate(305.99 -46.03) rotate(90)"/><rect class="cls-4" x="173.35" y="160.21" width="5.32" height="5.33" rx="1.28" transform="translate(338.89 -13.13) rotate(90)"/><rect class="cls-4" x="173.35" y="193.11" width="5.32" height="5.33" rx="1.28" transform="translate(371.79 19.77) rotate(90)"/><rect class="cls-4" x="173.35" y="226.01" width="5.32" height="5.33" rx="1.28" transform="translate(404.68 52.66) rotate(90)"/><rect class="cls-4" x="173.35" y="258.91" width="5.32" height="5.33" rx="1.28" transform="translate(437.58 85.56) rotate(90)"/><rect class="cls-4" x="173.35" y="291.81" width="5.32" height="5.33" rx="1.28" transform="translate(470.48 118.46) rotate(90)"/><circle class="cls-4" cx="151.6" cy="64.18" r="3.36"/><path class="cls-4" d="M145.36,64.18A3.37,3.37,0,1,1,142,60.82,3.37,3.37,0,0,1,145.36,64.18Z"/><path class="cls-4" d="M135.75,64.18a3.37,3.37,0,1,1-3.37-3.36A3.37,3.37,0,0,1,135.75,64.18Z"/><circle class="cls-4" cx="122.77" cy="64.18" r="3.36"/><circle class="cls-4" cx="151.6" cy="97.08" r="3.36"/><path class="cls-4" d="M145.36,97.08A3.37,3.37,0,1,1,142,93.72,3.36,3.36,0,0,1,145.36,97.08Z"/><path class="cls-4" d="M135.75,97.08a3.37,3.37,0,1,1-3.37-3.36A3.36,3.36,0,0,1,135.75,97.08Z"/><circle class="cls-4" cx="122.77" cy="97.08" r="3.36"/><path class="cls-4" d="M155,130a3.37,3.37,0,1,1-3.37-3.36A3.36,3.36,0,0,1,155,130Z"/><path class="cls-4" d="M145.36,130a3.37,3.37,0,1,1-3.37-3.36A3.36,3.36,0,0,1,145.36,130Z"/><path class="cls-4" d="M135.75,130a3.37,3.37,0,1,1-3.37-3.36A3.36,3.36,0,0,1,135.75,130Z"/><path class="cls-4" d="M126.14,130a3.37,3.37,0,1,1-3.37-3.36A3.36,3.36,0,0,1,126.14,130Z"/><path class="cls-4" d="M155,162.88a3.37,3.37,0,1,1-3.37-3.37A3.37,3.37,0,0,1,155,162.88Z"/><path class="cls-4" d="M145.36,162.88a3.37,3.37,0,1,1-3.37-3.37A3.37,3.37,0,0,1,145.36,162.88Z"/><path class="cls-4" d="M135.75,162.88a3.37,3.37,0,1,1-3.37-3.37A3.37,3.37,0,0,1,135.75,162.88Z"/><path class="cls-4" d="M126.14,162.88a3.37,3.37,0,1,1-3.37-3.37A3.37,3.37,0,0,1,126.14,162.88Z"/><path class="cls-4" d="M155,195.78a3.37,3.37,0,1,1-3.37-3.37A3.37,3.37,0,0,1,155,195.78Z"/><path class="cls-4" d="M145.36,195.78a3.37,3.37,0,1,1-3.37-3.37A3.37,3.37,0,0,1,145.36,195.78Z"/><path class="cls-4" d="M135.75,195.78a3.37,3.37,0,1,1-3.37-3.37A3.37,3.37,0,0,1,135.75,195.78Z"/><path class="cls-4" d="M126.14,195.78a3.37,3.37,0,1,1-3.37-3.37A3.37,3.37,0,0,1,126.14,195.78Z"/><path class="cls-4" d="M155,228.67a3.37,3.37,0,1,1-3.37-3.36A3.37,3.37,0,0,1,155,228.67Z"/><path class="cls-4" d="M145.36,228.67a3.37,3.37,0,1,1-3.37-3.36A3.37,3.37,0,0,1,145.36,228.67Z"/><path class="cls-4" d="M135.75,228.67a3.37,3.37,0,1,1-3.37-3.36A3.37,3.37,0,0,1,135.75,228.67Z"/><path class="cls-4" d="M126.14,228.67a3.37,3.37,0,1,1-3.37-3.36A3.37,3.37,0,0,1,126.14,228.67Z"/><circle class="cls-4" cx="151.6" cy="261.57" r="3.36"/><path class="cls-4" d="M145.36,261.57a3.37,3.37,0,1,1-3.37-3.36A3.37,3.37,0,0,1,145.36,261.57Z"/><path class="cls-4" d="M135.75,261.57a3.37,3.37,0,1,1-3.37-3.36A3.37,3.37,0,0,1,135.75,261.57Z"/><circle class="cls-4" cx="122.77" cy="261.57" r="3.36"/><circle class="cls-4" cx="151.6" cy="294.47" r="3.36"/><path class="cls-4" d="M145.36,294.47a3.37,3.37,0,1,1-3.37-3.36A3.36,3.36,0,0,1,145.36,294.47Z"/><path class="cls-4" d="M135.75,294.47a3.37,3.37,0,1,1-3.37-3.36A3.36,3.36,0,0,1,135.75,294.47Z"/><circle class="cls-4" cx="122.77" cy="294.47" r="3.36"/><circle class="cls-2" cx="105.42" cy="64.18" r="7.29"/><circle class="cls-2" cx="105.42" cy="97.08" r="7.29"/><circle class="cls-2" cx="105.42" cy="129.98" r="7.29" transform="translate(-39.74 213.27) rotate(-80.8)"/><circle class="cls-2" cx="105.42" cy="162.88" r="7.29" transform="translate(-72.21 240.91) rotate(-80.8)"/><circle class="cls-2" cx="105.42" cy="195.78" r="7.29" transform="translate(-66.64 54.93) rotate(-22.39)"/><circle class="cls-2" cx="105.42" cy="228.67" r="7.29" transform="translate(-79.17 57.41) rotate(-22.39)"/><circle class="cls-2" cx="105.42" cy="261.57" r="7.29"/><circle class="cls-2" cx="105.42" cy="294.47" r="7.29"/><rect class="cls-3" x="275.37" y="313.64" width="117.31" height="13.81"/><rect class="cls-2" x="392.67" y="313.64" width="19.54" height="13.81" transform="translate(804.89 641.08) rotate(180)"/><rect class="cls-4" x="268.85" y="69.7" width="123.82" height="243.94"/><rect class="cls-3" x="277.49" y="67.61" width="132.6" height="2.09"/><rect class="cls-3" x="392.67" y="69.7" width="26.06" height="243.94" transform="translate(811.4 383.33) rotate(180)"/><rect class="cls-3" x="271.91" y="72.62" width="117.69" height="26.73" transform="translate(661.52 171.97) rotate(180)"/><rect class="cls-3" x="271.91" y="283.84" width="117.69" height="26.73" transform="translate(661.52 594.4) rotate(180)"/><rect class="cls-3" x="271.91" y="253.66" width="117.69" height="26.73" transform="translate(661.52 534.05) rotate(180)"/><rect class="cls-3" x="271.91" y="223.49" width="117.69" height="26.73" transform="translate(661.52 473.71) rotate(180)"/><rect class="cls-3" x="271.91" y="193.31" width="117.69" height="26.73" transform="translate(661.52 413.36) rotate(180)"/><rect class="cls-3" x="271.91" y="163.14" width="117.69" height="26.73" transform="translate(661.52 353.01) rotate(180)"/><rect class="cls-3" x="271.91" y="132.97" width="117.69" height="26.73" transform="translate(661.52 292.66) rotate(180)"/><rect class="cls-3" x="271.91" y="102.79" width="117.69" height="26.73" transform="translate(661.52 232.31) rotate(180)"/><rect class="cls-2" x="275.7" y="76.44" width="64.59" height="19.09" rx="3.97" transform="translate(615.98 171.97) rotate(180)"/><rect class="cls-4" x="278.93" y="83.45" width="4.88" height="5.06" rx="1.19" transform="translate(367.35 -195.38) rotate(90)"/><rect class="cls-2" x="275.7" y="106.61" width="64.59" height="19.09" rx="3.97" transform="translate(615.98 232.31) rotate(180)"/><rect class="cls-4" x="278.93" y="113.63" width="4.88" height="5.06" rx="1.19" transform="translate(397.52 -165.21) rotate(90)"/><rect class="cls-2" x="275.7" y="136.78" width="64.59" height="19.09" rx="3.97" transform="translate(615.98 292.66) rotate(180)"/><rect class="cls-4" x="278.93" y="143.8" width="4.88" height="5.06" rx="1.19" transform="translate(427.7 -135.04) rotate(90)"/><rect class="cls-2" x="275.7" y="166.96" width="64.59" height="19.09" rx="3.97" transform="translate(615.98 353.01) rotate(180)"/><rect class="cls-4" x="278.93" y="173.98" width="4.88" height="5.06" rx="1.19" transform="translate(457.87 -104.86) rotate(90)"/><rect class="cls-2" x="275.7" y="197.13" width="64.59" height="19.09" rx="3.97" transform="translate(615.98 413.36) rotate(180)"/><rect class="cls-4" x="278.93" y="204.15" width="4.88" height="5.06" rx="1.19" transform="translate(488.05 -74.69) rotate(90)"/><rect class="cls-2" x="275.7" y="227.31" width="64.59" height="19.09" rx="3.97" transform="translate(615.98 473.71) rotate(180)"/><rect class="cls-4" x="278.93" y="234.32" width="4.88" height="5.06" rx="1.19" transform="translate(518.22 -44.51) rotate(90)"/><rect class="cls-2" x="275.7" y="257.48" width="64.59" height="19.09" rx="3.97" transform="translate(615.98 534.05) rotate(180)"/><rect class="cls-4" x="278.93" y="264.5" width="4.88" height="5.06" rx="1.19" transform="translate(548.39 -14.34) rotate(90)"/><rect class="cls-2" x="275.7" y="287.65" width="64.59" height="19.09" rx="3.97" transform="translate(615.98 594.4) rotate(180)"/><rect class="cls-4" x="278.93" y="294.67" width="4.88" height="5.06" rx="1.19" transform="translate(578.57 15.83) rotate(90)"/><rect class="cls-4" x="286.72" y="83.45" width="4.88" height="5.06" rx="1.19" transform="translate(375.14 -203.18) rotate(90)"/><rect class="cls-4" x="286.72" y="113.63" width="4.88" height="5.06" rx="1.19" transform="translate(405.32 -173) rotate(90)"/><rect class="cls-4" x="286.72" y="143.8" width="4.88" height="5.06" rx="1.19" transform="translate(435.49 -142.83) rotate(90)"/><rect class="cls-4" x="286.72" y="173.98" width="4.88" height="5.06" rx="1.19" transform="translate(465.66 -112.65) rotate(90)"/><rect class="cls-4" x="286.72" y="204.15" width="4.88" height="5.06" rx="1.19" transform="translate(495.84 -82.48) rotate(90)"/><rect class="cls-4" x="286.72" y="234.32" width="4.88" height="5.06" rx="1.19" transform="translate(526.01 -52.31) rotate(90)"/><rect class="cls-4" x="286.72" y="264.5" width="4.88" height="5.06" rx="1.19" transform="translate(556.19 -22.13) rotate(90)"/><rect class="cls-4" x="286.72" y="294.67" width="4.88" height="5.06" rx="1.19" transform="translate(586.36 8.04) rotate(90)"/><rect class="cls-4" x="294.51" y="83.45" width="4.88" height="5.06" rx="1.19" transform="translate(382.93 -210.97) rotate(90)"/><rect class="cls-4" x="294.51" y="113.63" width="4.88" height="5.06" rx="1.19" transform="translate(413.11 -180.79) rotate(90)"/><rect class="cls-4" x="294.51" y="143.8" width="4.88" height="5.06" rx="1.19" transform="translate(443.28 -150.62) rotate(90)"/><rect class="cls-4" x="294.51" y="173.98" width="4.88" height="5.06" rx="1.19" transform="translate(473.45 -120.44) rotate(90)"/><rect class="cls-4" x="294.51" y="204.15" width="4.88" height="5.06" rx="1.19" transform="translate(503.63 -90.27) rotate(90)"/><rect class="cls-4" x="294.51" y="234.32" width="4.88" height="5.06" rx="1.19" transform="translate(533.8 -60.1) rotate(90)"/><rect class="cls-4" x="294.51" y="264.5" width="4.88" height="5.06" rx="1.19" transform="translate(563.98 -29.92) rotate(90)"/><rect class="cls-4" x="294.51" y="294.67" width="4.88" height="5.06" rx="1.19" transform="translate(594.15 0.25) rotate(90)"/><rect class="cls-4" x="302.3" y="83.45" width="4.88" height="5.06" rx="1.19" transform="translate(390.72 -218.76) rotate(90)"/><rect class="cls-4" x="302.3" y="113.63" width="4.88" height="5.06" rx="1.19" transform="translate(420.9 -188.58) rotate(90)"/><rect class="cls-4" x="302.3" y="143.8" width="4.88" height="5.06" rx="1.19" transform="translate(451.07 -158.41) rotate(90)"/><rect class="cls-4" x="302.3" y="173.98" width="4.88" height="5.06" rx="1.19" transform="translate(481.24 -128.24) rotate(90)"/><rect class="cls-4" x="302.3" y="204.15" width="4.88" height="5.06" rx="1.19" transform="translate(511.42 -98.06) rotate(90)"/><rect class="cls-4" x="302.3" y="234.32" width="4.88" height="5.06" rx="1.19" transform="translate(541.59 -67.89) rotate(90)"/><rect class="cls-4" x="302.3" y="264.5" width="4.88" height="5.06" rx="1.19" transform="translate(571.77 -37.71) rotate(90)"/><rect class="cls-4" x="302.3" y="294.67" width="4.88" height="5.06" rx="1.19" transform="translate(601.94 -7.54) rotate(90)"/><path class="cls-4" d="M346.8,86A3.2,3.2,0,1,0,350,82.9,3.14,3.14,0,0,0,346.8,86Z"/><path class="cls-4" d="M355.93,86a3.2,3.2,0,1,0,3.19-3.08A3.14,3.14,0,0,0,355.93,86Z"/><path class="cls-4" d="M365.05,86a3.2,3.2,0,1,0,3.2-3.08A3.14,3.14,0,0,0,365.05,86Z"/><path class="cls-4" d="M374.18,86a3.19,3.19,0,1,0,3.19-3.08A3.14,3.14,0,0,0,374.18,86Z"/><path class="cls-4" d="M346.8,116.16a3.2,3.2,0,1,0,3.2-3.09A3.14,3.14,0,0,0,346.8,116.16Z"/><path class="cls-4" d="M355.93,116.16a3.2,3.2,0,1,0,3.19-3.09A3.14,3.14,0,0,0,355.93,116.16Z"/><path class="cls-4" d="M365.05,116.16a3.2,3.2,0,1,0,3.2-3.09A3.14,3.14,0,0,0,365.05,116.16Z"/><path class="cls-4" d="M374.18,116.16a3.19,3.19,0,1,0,3.19-3.09A3.14,3.14,0,0,0,374.18,116.16Z"/><path class="cls-4" d="M346.8,146.33a3.2,3.2,0,1,0,3.2-3.08A3.15,3.15,0,0,0,346.8,146.33Z"/><path class="cls-4" d="M355.93,146.33a3.2,3.2,0,1,0,3.19-3.08A3.15,3.15,0,0,0,355.93,146.33Z"/><path class="cls-4" d="M365.05,146.33a3.2,3.2,0,1,0,3.2-3.08A3.15,3.15,0,0,0,365.05,146.33Z"/><path class="cls-4" d="M374.18,146.33a3.19,3.19,0,1,0,3.19-3.08A3.15,3.15,0,0,0,374.18,146.33Z"/><path class="cls-4" d="M346.8,176.51a3.2,3.2,0,1,0,3.2-3.09A3.14,3.14,0,0,0,346.8,176.51Z"/><path class="cls-4" d="M355.93,176.51a3.2,3.2,0,1,0,3.19-3.09A3.14,3.14,0,0,0,355.93,176.51Z"/><path class="cls-4" d="M365.05,176.51a3.2,3.2,0,1,0,3.2-3.09A3.14,3.14,0,0,0,365.05,176.51Z"/><path class="cls-4" d="M374.18,176.51a3.19,3.19,0,1,0,3.19-3.09A3.14,3.14,0,0,0,374.18,176.51Z"/><path class="cls-4" d="M346.8,206.68a3.2,3.2,0,1,0,3.2-3.09A3.14,3.14,0,0,0,346.8,206.68Z"/><path class="cls-4" d="M355.93,206.68a3.2,3.2,0,1,0,3.19-3.09A3.14,3.14,0,0,0,355.93,206.68Z"/><path class="cls-4" d="M365.05,206.68a3.2,3.2,0,1,0,3.2-3.09A3.14,3.14,0,0,0,365.05,206.68Z"/><path class="cls-4" d="M374.18,206.68a3.19,3.19,0,1,0,3.19-3.09A3.14,3.14,0,0,0,374.18,206.68Z"/><path class="cls-4" d="M346.8,236.85a3.2,3.2,0,1,0,3.2-3.08A3.14,3.14,0,0,0,346.8,236.85Z"/><path class="cls-4" d="M355.93,236.85a3.2,3.2,0,1,0,3.19-3.08A3.14,3.14,0,0,0,355.93,236.85Z"/><path class="cls-4" d="M365.05,236.85a3.2,3.2,0,1,0,3.2-3.08A3.14,3.14,0,0,0,365.05,236.85Z"/><path class="cls-4" d="M374.18,236.85a3.19,3.19,0,1,0,3.19-3.08A3.14,3.14,0,0,0,374.18,236.85Z"/><path class="cls-4" d="M346.8,267a3.2,3.2,0,1,0,3.2-3.09A3.14,3.14,0,0,0,346.8,267Z"/><path class="cls-4" d="M355.93,267a3.2,3.2,0,1,0,3.19-3.09A3.14,3.14,0,0,0,355.93,267Z"/><path class="cls-4" d="M365.05,267a3.2,3.2,0,1,0,3.2-3.09A3.14,3.14,0,0,0,365.05,267Z"/><path class="cls-4" d="M374.18,267a3.19,3.19,0,1,0,3.19-3.09A3.14,3.14,0,0,0,374.18,267Z"/><path class="cls-4" d="M346.8,297.2a3.2,3.2,0,1,0,3.2-3.08A3.14,3.14,0,0,0,346.8,297.2Z"/><path class="cls-4" d="M355.93,297.2a3.2,3.2,0,1,0,3.19-3.08A3.14,3.14,0,0,0,355.93,297.2Z"/><path class="cls-4" d="M365.05,297.2a3.2,3.2,0,1,0,3.2-3.08A3.14,3.14,0,0,0,365.05,297.2Z"/><path class="cls-4" d="M374.18,297.2a3.19,3.19,0,1,0,3.19-3.08A3.14,3.14,0,0,0,374.18,297.2Z"/></g><g id="Objects"><ellipse class="cls-6" cx="250" cy="361.29" rx="193.89" ry="11.32"/><rect class="cls-7" x="118.88" y="348.85" width="116.93" height="13.34"/><g class="cls-8"><rect class="cls-9" x="121.92" y="350.75" width="2.93" height="9.55"/><rect class="cls-9" x="127.06" y="350.75" width="2.93" height="9.55"/><rect class="cls-9" x="132.21" y="350.75" width="2.93" height="9.55"/><rect class="cls-9" x="137.35" y="350.75" width="2.93" height="9.55"/><rect class="cls-9" x="142.49" y="350.75" width="2.93" height="9.55"/><rect class="cls-9" x="147.63" y="350.75" width="2.93" height="9.55"/><rect class="cls-9" x="152.78" y="350.75" width="2.93" height="9.55"/><rect class="cls-9" x="157.92" y="350.75" width="2.93" height="9.55"/><rect class="cls-9" x="163.06" y="350.75" width="2.93" height="9.55"/><rect class="cls-9" x="168.2" y="350.75" width="2.93" height="9.55"/><rect class="cls-9" x="173.34" y="350.75" width="2.93" height="9.55"/><rect class="cls-9" x="178.49" y="350.75" width="2.93" height="9.55"/><rect class="cls-9" x="183.63" y="350.75" width="2.93" height="9.55"/><rect class="cls-9" x="188.77" y="350.75" width="2.93" height="9.55"/><rect class="cls-9" x="193.91" y="350.75" width="2.93" height="9.55"/><rect class="cls-9" x="199.06" y="350.75" width="2.93" height="9.55"/><rect class="cls-9" x="204.2" y="350.75" width="2.93" height="9.55"/><rect class="cls-9" x="209.34" y="350.75" width="2.93" height="9.55"/><rect class="cls-9" x="214.48" y="350.75" width="2.93" height="9.55"/><rect class="cls-9" x="219.63" y="350.75" width="2.93" height="9.55"/><rect class="cls-9" x="224.77" y="350.75" width="2.93" height="9.55"/><rect class="cls-9" x="229.91" y="350.75" width="2.93" height="9.55"/></g><rect class="cls-10" x="235.81" y="348.85" width="18.24" height="13.34" transform="translate(489.87 711.04) rotate(180)"/><rect class="cls-11" x="112.8" y="113.1" width="123.02" height="235.75"/><rect class="cls-12" x="120.86" y="111.08" width="131.21" height="2.02"/><rect class="cls-13" x="107.92" y="222.95" width="1" height="9.93"/><rect class="cls-13" x="107.92" y="236.22" width="1" height="25.83"/><rect class="cls-13" x="235.81" y="113.1" width="24.33" height="235.75" transform="translate(495.95 461.95) rotate(180)"/><rect class="cls-14" x="115.66" y="175.46" width="117.29" height="23.4" rx="3.27"/><path class="cls-13" d="M223.08,184l-4.73-9.77v25.83H233V187.16H228.1A5.57,5.57,0,0,1,223.08,184Z"/><rect class="cls-15" x="115.66" y="115.92" width="117.29" height="25.83"/><rect class="cls-15" x="115.66" y="320.05" width="117.29" height="25.83"/><rect class="cls-15" x="115.66" y="290.89" width="117.29" height="25.83"/><rect class="cls-15" x="115.66" y="261.73" width="117.29" height="25.83"/><rect class="cls-15" x="115.66" y="232.56" width="117.29" height="25.83"/><rect class="cls-15" x="115.66" y="203.4" width="117.29" height="25.83"/><rect class="cls-15" x="101.06" y="174.24" width="117.29" height="25.83"/><rect class="cls-15" x="115.66" y="145.08" width="117.29" height="25.83"/><rect class="cls-13" x="177.29" y="119.61" width="52.13" height="18.45" rx="3.77"/><rect class="cls-16" x="211.37" y="120.01" width="4.72" height="17.65" rx="1.6" transform="translate(342.57 -84.89) rotate(90)"/><rect class="cls-13" x="177.29" y="148.77" width="52.13" height="18.45" rx="3.77"/><rect class="cls-16" x="211.37" y="149.17" width="4.72" height="17.65" rx="1.6" transform="translate(371.73 -55.73) rotate(90)"/><rect class="cls-13" x="162.69" y="177.93" width="52.13" height="18.45" rx="3.77"/><rect class="cls-16" x="196.77" y="178.33" width="4.72" height="17.65" rx="1.6" transform="translate(386.29 -11.97) rotate(90)"/><rect class="cls-13" x="177.29" y="207.09" width="52.13" height="18.45" rx="3.77"/><rect class="cls-16" x="211.37" y="207.5" width="4.72" height="17.65" rx="1.6" transform="translate(430.05 2.59) rotate(90)"/><rect class="cls-13" x="177.29" y="236.25" width="52.13" height="18.45" rx="3.77"/><rect class="cls-16" x="211.37" y="236.66" width="4.72" height="17.65" rx="1.6" transform="translate(459.21 31.75) rotate(90)"/><rect class="cls-13" x="177.29" y="265.42" width="52.13" height="18.45" rx="3.77"/><rect class="cls-16" x="211.37" y="265.82" width="4.72" height="17.65" rx="1.6" transform="translate(488.37 60.91) rotate(90)"/><rect class="cls-13" x="177.29" y="294.58" width="52.13" height="18.45" rx="3.77"/><rect class="cls-16" x="211.37" y="294.98" width="4.72" height="17.65" rx="1.6" transform="translate(517.53 90.07) rotate(90)"/><rect class="cls-13" x="177.29" y="323.74" width="52.13" height="18.45" rx="3.77"/><rect class="cls-16" x="211.37" y="324.14" width="4.72" height="17.65" rx="1.6" transform="translate(546.69 119.23) rotate(90)"/><circle class="cls-13" cx="168.22" cy="128.84" r="2.98"/><circle class="cls-13" cx="159.7" cy="128.84" r="2.98"/><circle class="cls-17" cx="151.19" cy="128.84" r="2.98"/><path class="cls-13" d="M145.65,128.84a3,3,0,1,1-3-3A3,3,0,0,1,145.65,128.84Z"/><circle class="cls-13" cx="168.22" cy="158" r="2.98"/><circle class="cls-13" cx="159.7" cy="158" r="2.98"/><circle class="cls-13" cx="151.19" cy="158" r="2.98"/><path class="cls-17" d="M145.65,158a3,3,0,1,1-3-3A3,3,0,0,1,145.65,158Z"/><circle class="cls-17" cx="153.62" cy="187.16" r="2.98"/><circle class="cls-13" cx="145.1" cy="187.16" r="2.98"/><circle class="cls-17" cx="136.59" cy="187.16" r="2.98"/><circle class="cls-13" cx="128.07" cy="187.16" r="2.98"/><circle class="cls-17" cx="168.22" cy="216.32" r="2.98"/><circle class="cls-17" cx="159.7" cy="216.32" r="2.98"/><circle class="cls-13" cx="151.19" cy="216.32" r="2.98"/><path class="cls-13" d="M145.65,216.32a3,3,0,1,1-3-3A3,3,0,0,1,145.65,216.32Z"/><circle class="cls-13" cx="168.22" cy="245.48" r="2.98"/><circle class="cls-17" cx="159.7" cy="245.48" r="2.98"/><circle class="cls-13" cx="151.19" cy="245.48" r="2.98"/><path class="cls-13" d="M145.65,245.48a3,3,0,1,1-3-3A3,3,0,0,1,145.65,245.48Z"/><circle class="cls-13" cx="168.22" cy="274.64" r="2.98"/><circle class="cls-13" cx="159.7" cy="274.64" r="2.98"/><circle class="cls-17" cx="151.19" cy="274.64" r="2.98"/><path class="cls-17" d="M145.65,274.64a3,3,0,1,1-3-3A3,3,0,0,1,145.65,274.64Z"/><path class="cls-17" d="M171.2,303.8a3,3,0,1,1-3-3A3,3,0,0,1,171.2,303.8Z"/><path class="cls-13" d="M162.69,303.8a3,3,0,1,1-3-3A3,3,0,0,1,162.69,303.8Z"/><path class="cls-13" d="M154.17,303.8a3,3,0,1,1-3-3A3,3,0,0,1,154.17,303.8Z"/><path class="cls-13" d="M145.65,303.8a3,3,0,1,1-3-3A3,3,0,0,1,145.65,303.8Z"/><circle class="cls-13" cx="168.22" cy="332.96" r="2.98"/><circle class="cls-13" cx="159.7" cy="332.96" r="2.98"/><circle class="cls-17" cx="151.19" cy="332.96" r="2.98"/><path class="cls-13" d="M145.65,333a3,3,0,1,1-3-3A3,3,0,0,1,145.65,333Z"/><path class="cls-16" d="M133.74,128.84a6.46,6.46,0,1,1-6.45-6.46A6.46,6.46,0,0,1,133.74,128.84Z"/><path class="cls-16" d="M133.74,158a6.46,6.46,0,1,1-6.45-6.46A6.46,6.46,0,0,1,133.74,158Z"/><path class="cls-16" d="M119.14,187.16a6.46,6.46,0,1,1-6.45-6.46A6.46,6.46,0,0,1,119.14,187.16Z"/><path class="cls-16" d="M133.74,216.32a6.46,6.46,0,1,1-6.45-6.46A6.46,6.46,0,0,1,133.74,216.32Z"/><path class="cls-16" d="M133.74,245.48a6.46,6.46,0,1,1-6.45-6.46A6.46,6.46,0,0,1,133.74,245.48Z"/><path class="cls-16" d="M133.74,274.64a6.46,6.46,0,1,1-6.45-6.46A6.46,6.46,0,0,1,133.74,274.64Z"/><path class="cls-16" d="M133.74,303.8a6.46,6.46,0,1,1-6.45-6.46A6.46,6.46,0,0,1,133.74,303.8Z"/><path class="cls-16" d="M133.74,333a6.46,6.46,0,1,1-6.45-6.45A6.46,6.46,0,0,1,133.74,333Z"/><path class="cls-13" d="M222.55,90.52A16.67,16.67,0,0,0,214.36,79h0c0-.13,0-.26,0-.39a16.7,16.7,0,0,0-16.69-16.7h-6.4v1.28a16.74,16.74,0,0,0-9.23,9.6,10.25,10.25,0,0,0-1.66-.15,10,10,0,0,0-9.27,6.28,11.26,11.26,0,0,0-6.88.52,12.13,12.13,0,0,0-7.73,10.85,12,12,0,0,0,11.94,12.2h45.21a9.07,9.07,0,0,0,9.16-8.87v-.1A16.24,16.24,0,0,0,222.55,90.52Z"/><path class="cls-11" d="M216.16,90.52A16.67,16.67,0,0,0,208,79h0c0-.13,0-.26,0-.39a16.69,16.69,0,0,0-32.33-5.82,9.88,9.88,0,0,0-10.92,6.13,11.26,11.26,0,0,0-6.88.52,12.13,12.13,0,0,0-7.73,10.85,11.93,11.93,0,0,0,11.93,12.2h45.22a9.08,9.08,0,0,0,9.16-8.87v-.1A16.24,16.24,0,0,0,216.16,90.52Z"/><rect class="cls-7" x="191.67" y="51.37" width="0.84" height="2.51"/><path class="cls-7" d="M353.38,108.39h-.84v-5h.84Zm0-10h-.84v-5h.84Zm0-10h-.84v-5h.84Zm0-10h-.84v-5h.84Zm0-10h-.84v-5h.84Zm0-10h-.84v-5h.84Zm0-10h-.84v-5h.84ZM192.51,46.38h-.84V42.94a14,14,0,0,1,.09-1.6l.83.1a14.76,14.76,0,0,0-.08,1.5Zm159.3-7.69a12.73,12.73,0,0,0-2.43-4.14L350,34a13.49,13.49,0,0,1,2.6,4.41ZM194.05,36.86l-.73-.4a13.51,13.51,0,0,1,3.26-4l.54.64A12.74,12.74,0,0,0,194.05,36.86Zm151.52-5.25A12.63,12.63,0,0,0,341,30.3l.07-.83a13.43,13.43,0,0,1,4.93,1.4Zm-144.24-.76-.25-.79a13.23,13.23,0,0,1,4.11-.64h.95v.84h-.95A12.86,12.86,0,0,0,201.33,30.85ZM336,30.26h-5v-.84h5Zm-10,0h-5v-.84h5Zm-10,0h-5v-.84h5Zm-10,0h-5v-.84h5Zm-10,0h-5v-.84h5Zm-10,0h-5v-.84h5Zm-10,0h-5v-.84h5Zm-10,0h-5v-.84h5Zm-10,0h-5v-.84h5Zm-10,0h-5v-.84h5Zm-10,0h-5v-.84h5Zm-10,0h-5v-.84h5Zm-10,0h-5v-.84h5Z"/><rect class="cls-7" x="352.54" y="113.41" width="0.84" height="2.51"/><polygon class="cls-18" points="286.2 354.69 293.55 354.69 294.34 337.68 286.99 337.68 286.2 354.69"/><path class="cls-19" d="M293.8,353.84h-8a.62.62,0,0,0-.61.5L284,360.87a1.11,1.11,0,0,0,1.1,1.31c2.89-.05,7.07-.22,10.71-.22,4.25,0,4.85.23,9.83.23,3,0,3.75-3.05,2.48-3.32-5.8-1.26-7.41-1.39-12.49-4.46A3.51,3.51,0,0,0,293.8,353.84Z"/><polygon class="cls-20" points="294.33 337.68 293.93 346.45 286.58 346.45 286.99 337.68 294.33 337.68"/><path class="cls-18" d="M335.44,110.17c-.14,2.3-.3,4.83-.37,7.25s-.12,4.89-.09,7.3.12,4.8.33,7.1a37,37,0,0,0,1.05,6.44,11.64,11.64,0,0,0,.87,2.32,5.41,5.41,0,0,0,.38.64l.45.73c.29.48.64,1,1,1.46,1.31,2,2.76,3.89,4.26,5.84,3,3.85,6.27,7.74,9.48,11.54l-3.83,4.48a91.59,91.59,0,0,1-12.47-9.73,74.11,74.11,0,0,1-5.64-5.82c-.45-.52-.91-1-1.33-1.6l-.65-.83a9.55,9.55,0,0,1-.69-.95,21.2,21.2,0,0,1-2.28-4.62,44.61,44.61,0,0,1-2-8.53c-.41-2.76-.59-5.46-.73-8.15s-.13-5.34,0-8,.21-5.24.51-8Z"/><path class="cls-21" d="M338,125.23l-3.12,1.25-5.25,2.09-9.32,3.73s-4.25-22.11-2-28.83c2.52-7.38,11.42-7.21,16.23,1.2C339.3,112.87,338,125.23,338,125.23Z"/><path class="cls-22" d="M334.46,126.66l-4.79,1.91c-.8-3.47-1.54-9.28.83-13.63C333.74,117.64,334.24,123.12,334.46,126.66Z"/><path class="cls-21" d="M329.7,157.38H289.49c-.29-3.61.62-13.39,0-26.71-.14-3.07-.36-6.32-.69-9.73a166.32,166.32,0,0,0-3.82-23,102.3,102.3,0,0,1,13.4-1.7,147.71,147.71,0,0,1,17.1,0,73.62,73.62,0,0,1,11.66,2.14S336.61,115.11,329.7,157.38Z"/><path class="cls-22" d="M289.51,130.67c-.14-3.07-.36-6.32-.69-9.73,1.3-.81,3-.86,3.35,3.9C292.49,129.24,291,130.46,289.51,130.67Z"/><polygon class="cls-18" points="364.17 166.15 358.37 169.77 351.21 168.24 356.91 161.16 364.17 166.15"/><path class="cls-18" d="M350.21,160.09l6.7,1.07-5.7,7.08s-3.58-.36-4.55-5.2Z"/><path class="cls-18" d="M299.41,77c1.27,5.5,2.71,15.57-1,19.24,0,0,1.87,3.69,12.09,3.69,9.33,0,5-3.68,5-3.68-6.19-1.47-6.19-6-5.28-10.29Z"/><path class="cls-20" d="M303.82,80.64l6.4,5.3a16.84,16.84,0,0,0-.42,3c-1.95,1.9-5.67-2.91-6-5.37A8.33,8.33,0,0,1,303.82,80.64Z"/><path class="cls-9" d="M321.24,63c2.56,3.18-.43,13.2-5.73,13S316.38,57,321.24,63Z"/><path class="cls-18" d="M300.5,67.85c-.58,7.41-1.29,11.71,1.91,16.13a9.83,9.83,0,0,0,17.18-2.14c2.51-6.31,3-17.37-3.79-21.56A9.88,9.88,0,0,0,300.5,67.85Z"/><path class="cls-9" d="M297.82,58.52l8,2.83c-3.51,4.7,1.59,15.76-4.61,13.69C298.37,74.09,289.11,63.86,297.82,58.52Z"/><path class="cls-9" d="M301.7,60.44c3,2.22,15.31,4.86,22.34.94a21.88,21.88,0,0,1-4.19-1.58s5.26-.25,7.59-4.14a16.92,16.92,0,0,1-9.66-1.22,8.73,8.73,0,0,0,5.37-4.56c-9.71.12-30.62,2.08-27,8.92S301.7,60.44,301.7,60.44Z"/><path class="cls-9" d="M297.5,59.54a14,14,0,0,1-3.95-2.83C293.09,57.85,293.09,61,297.5,59.54Z"/><path class="cls-18" d="M296,75.35a7.47,7.47,0,0,0,4,3.85c2.33,1,3.7-1,3.22-3.36-.43-2.09-2.16-5.1-4.58-5.06S295.1,73.21,296,75.35Z"/><polygon class="cls-18" points="308.75 354.69 316.09 354.69 317.61 337.68 310.27 337.68 308.75 354.69"/><path class="cls-19" d="M316.43,353.84h-8a.61.61,0,0,0-.61.5l-1.22,6.53a1.12,1.12,0,0,0,1.1,1.31c2.9-.05,7.07-.22,10.71-.22,4.25,0,7.94.23,12.92.23,3,0,3.75-3.05,2.47-3.32-5.79-1.26-10.49-1.39-15.56-4.46A3.54,3.54,0,0,0,316.43,353.84Z"/><polygon class="cls-20" points="317.61 337.68 316.83 346.45 309.48 346.45 310.26 337.68 317.61 337.68"/><path class="cls-23" d="M319.5,355a2.22,2.22,0,0,0,1.48-.16,1,1,0,0,0,.48-.87.57.57,0,0,0-.24-.54c-.77-.55-3.36.54-3.66.66a.19.19,0,0,0-.1.17.19.19,0,0,0,.12.16A8.9,8.9,0,0,0,319.5,355Zm1.3-1.37a.93.93,0,0,1,.22.08.25.25,0,0,1,.09.23.7.7,0,0,1-.32.6,3.65,3.65,0,0,1-2.67-.28A6.91,6.91,0,0,1,320.8,353.6Z"/><path class="cls-23" d="M317.62,354.4a.14.14,0,0,0,.09,0c.82-.3,2.51-1.69,2.46-2.54a.6.6,0,0,0-.51-.55,1,1,0,0,0-.78.1c-1,.57-1.4,2.69-1.41,2.78a.16.16,0,0,0,.06.17A.15.15,0,0,0,317.62,354.4Zm1.87-2.77.08,0c.23.06.24.17.24.22,0,.5-1.07,1.58-1.91,2a4.19,4.19,0,0,1,1.17-2.19A.65.65,0,0,1,319.49,351.63Z"/><path class="cls-7" d="M306.71,344.35h12s18.41-70.32,18.06-94.17c-.35-22.94-7-92.8-7-92.8H303.27s2.05,15.54,4.39,34.71c2.09,16.92,4.39,36.69,5.71,51.09.38,4.28.69,8.08.87,11.2C315.61,277.8,306.71,344.35,306.71,344.35Z"/><path class="cls-24" d="M307.66,192.09c2.09,16.92,4.39,36.69,5.71,51.09,2.79-12.57,9.6-49.11-.62-67.59C310.19,179.24,308.63,185.55,307.66,192.09Z"/><path class="cls-7" d="M315.44,157.38s-1,67.37-4.91,88.89c-4.28,23.57-12.8,98.08-12.8,98.08H284s2-72.61,4.1-95.94c2.26-25.33,1.43-91,1.43-91Z"/><polygon class="cls-9" points="283.44 344.64 298.27 344.64 299.36 339.05 282.93 338.59 283.44 344.64"/><polygon class="cls-9" points="306.03 344.64 320.86 344.64 321.96 339.05 305.58 339.33 306.03 344.64"/><path class="cls-21" d="M289.22,336.21h0a.13.13,0,0,1-.11-.15c.09-.69,1.12-65.85,3-86.81,2-22.75.76-83.11.8-83.62a.12.12,0,0,1,.14-.11.14.14,0,0,1,.12.14c0,.51,1.23,60.87-.81,83.62-1.87,21-2.9,86.13-3,86.83A.12.12,0,0,1,289.22,336.21Z"/><path class="cls-9" d="M311.41,71.92c-.09.6.16,1.14.56,1.21s.78-.36.86-1-.17-1.13-.56-1.2S311.49,71.33,311.41,71.92Z"/><path class="cls-9" d="M318.34,72.76c-.08.59.17,1.13.56,1.2s.78-.36.86-1-.17-1.13-.56-1.2S318.42,72.16,318.34,72.76Z"/><path class="cls-25" d="M316,73a22.52,22.52,0,0,0,2.16,5.61,3.53,3.53,0,0,1-2.95,0Z"/><path class="cls-9" d="M314,81a.17.17,0,0,0,.2-.15.19.19,0,0,0-.16-.2,5,5,0,0,1-3.72-2.38.19.19,0,0,0-.24-.09.18.18,0,0,0-.08.24A5.35,5.35,0,0,0,314,81Z"/><path class="cls-9" d="M309.58,67.61a.35.35,0,0,0,.31-.06,2.77,2.77,0,0,1,2.49-.55.36.36,0,0,0,.45-.22.38.38,0,0,0-.24-.46,3.48,3.48,0,0,0-3.15.67.34.34,0,0,0-.05.5A.39.39,0,0,0,309.58,67.61Z"/><path class="cls-26" d="M290.92,96.57l1.89-.16a.39.39,0,0,1,.41.3c6.3,28.37,4.41,58.49,4.41,58.49h-2.09A272.79,272.79,0,0,0,290.6,97,.35.35,0,0,1,290.92,96.57Z"/><path class="cls-9" d="M295.93,155.87h1.45a.65.65,0,0,0,.66-.67h0a.71.71,0,0,0-.71-.68h-1.44a.65.65,0,0,0-.66.68h0A.71.71,0,0,0,295.93,155.87Z"/><path class="cls-9" d="M297.61,157.63l-.07-1.89a.93.93,0,0,0-.92-.89h0a.85.85,0,0,0-.85.89l.07,1.89a.92.92,0,0,0,.91.89h0A.86.86,0,0,0,297.61,157.63Z"/><path class="cls-9" d="M321.47,69.16a.29.29,0,0,0,.16,0,.34.34,0,0,0,.23-.44,3.64,3.64,0,0,0-2.24-2.43.33.33,0,0,0-.43.24.37.37,0,0,0,.25.45h0a2.9,2.9,0,0,1,1.75,1.94A.36.36,0,0,0,321.47,69.16Z"/><path class="cls-18" d="M289.53,109.81c-1.15,4.71-2.31,9.61-3.33,14.38-.5,2.39-1,4.77-1.35,7.11a42.65,42.65,0,0,0-.63,6.55A19,19,0,0,0,288.29,149a32.28,32.28,0,0,0,4.58,4.89c.86.76,1.76,1.51,2.7,2.2.47.34.95.68,1.43,1s1,.67,1.39.91l-2.18,5.47c-.8-.25-1.4-.45-2.08-.7s-1.28-.52-1.92-.81a40.63,40.63,0,0,1-3.72-1.89,35.28,35.28,0,0,1-6.8-5.2,28.32,28.32,0,0,1-5.36-7.24,26,26,0,0,1-2.7-9,47.85,47.85,0,0,1,0-8.65c.23-2.71.56-5.35,1-8a139.57,139.57,0,0,1,3.4-15.34Z"/><path class="cls-21" d="M285,97.93c-7.95,1.43-12.45,22.67-12.45,22.67l19.66,7a48.23,48.23,0,0,0,0-16.18C290.79,102.42,292.55,96.58,285,97.93Z"/><path class="cls-26" d="M322.76,97l1.89.35a.38.38,0,0,1,.31.31c5,28.39,1.69,57.58,1.69,57.58h-2.1c2-30.9-1.59-54.17-2.21-57.83A.35.35,0,0,1,322.76,97Z"/><path class="cls-9" d="M324.92,155.87h1.45a.68.68,0,0,0,.68-.67h0a.67.67,0,0,0-.67-.68h-1.45a.68.68,0,0,0-.68.68h0A.66.66,0,0,0,324.92,155.87Z"/><path class="cls-9" d="M326.51,157.63l0-1.89a.88.88,0,0,0-.88-.89h0a.9.9,0,0,0-.89.89l0,1.89a.88.88,0,0,0,.87.89h0A.91.91,0,0,0,326.51,157.63Z"/><path class="cls-23" d="M296.87,355a2.25,2.25,0,0,0,1.49-.16,1,1,0,0,0,.48-.87.57.57,0,0,0-.24-.54c-.77-.55-3.37.54-3.66.66a.18.18,0,0,0,0,.33A9.08,9.08,0,0,0,296.87,355Zm1.3-1.37a1,1,0,0,1,.23.08.25.25,0,0,1,.08.23.68.68,0,0,1-.32.6,3.62,3.62,0,0,1-2.66-.28A6.9,6.9,0,0,1,298.17,353.6Z"/><path class="cls-23" d="M295,354.4a.14.14,0,0,0,.09,0c.83-.3,2.52-1.69,2.46-2.54a.6.6,0,0,0-.51-.55,1,1,0,0,0-.78.1c-.95.57-1.39,2.69-1.41,2.78a.18.18,0,0,0,.06.17A.18.18,0,0,0,295,354.4Zm1.88-2.77.08,0c.22.06.23.17.23.22,0,.5-1.06,1.58-1.9,2a4.11,4.11,0,0,1,1.16-2.19A.66.66,0,0,1,296.87,351.63Z"/><path class="cls-18" d="M292.45,162l2.3-4.18,6.31.22,4.91,2,3.34,4.92-8.58-.53S295.47,166,292.45,162Z"/><polygon class="cls-22" points="309.87 99.92 308.36 98.85 305.35 101.86 309.87 99.92"/><path class="cls-26" d="M308.36,98.85s-2.45,3.61-2.86,6.23c-3.13-1.28-9.07-4.49-10-9a13.2,13.2,0,0,0,3.14-1.5S301.83,97.21,308.36,98.85Z"/><polygon class="cls-22" points="309.87 99.92 310.43 98.69 314.58 101.86 309.87 99.92"/><path class="cls-26" d="M310.43,98.69a10.49,10.49,0,0,1,3.18,5.75c3-1.27,4.09-5.45,3.19-8.23A18.66,18.66,0,0,0,313.1,95,3.41,3.41,0,0,1,310.43,98.69Z"/><polygon class="cls-26" points="382.45 128.48 319.48 126.26 310.37 163.07 373.34 165.29 382.45 128.48"/><polygon class="cls-9" points="384.38 128.55 321.42 126.33 312.31 163.14 375.28 165.36 384.38 128.55"/><polygon class="cls-9" points="375.28 165.36 375.02 167.41 312.05 165.18 312.31 163.14 375.28 165.36"/><polygon class="cls-26" points="312.31 163.14 312.05 165.18 287.34 164.31 287.59 162.26 312.31 163.14"/></g></g></g></svg>